<svg version="1.2" xmlns="http://www.w3.org/2000/svg" viewBox="0 0 178 177" width="178" height="177"><style>.a{fill:#5fcaf4}</style><path fill-rule="evenodd" class="a" d="m88.6 3c-47.8 0-86.6 38.8-86.6 86.7 0 43.9 32.7 80.2 75.1 85.9v-17.5c0-4.9-3.1-9.3-7.8-10.9-24.4-8.2-41.9-31.6-41.3-59 0.8-33.3 27.9-59.5 61.2-59.2 33.2 0.3 60.1 27.4 60.1 60.7q0 1.1-0.1 2.2v0.5q0 0.3 0 0.6 0 0.2-0.1 0.5 0 0.2 0 0.5 0 0.3 0 0.5-0.1 0.4-0.1 0.7 0 0.4-0.1 0.8 0 0.3 0 0.7-0.1 0.4-0.1 0.8-0.1 0.4-0.1 0.8-0.1 0.3-0.2 0.7c-7.4 48.9-71.1 76.4-71.4 76.6q5.7 0.7 11.5 0.7c47.9 0 86.6-38.8 86.6-86.6 0-47.9-38.7-86.7-86.6-86.7z"/></svg>