<svg version="1.2" xmlns="http://www.w3.org/2000/svg" viewBox="0 0 426 426" width="426" height="426">
	<title>edit_-svg</title>
	<style>
		.s0 { fill: #000000 } 
	</style>
	<g id="Layer">
		<path id="Layer" class="s0" d="m2.9 2.9l-2.9 2.9v69.5 69.5l2.6 3.1c3.3 4 8.9 4.3 13.1 0.7l2.8-2.4 0.3-63.6 0.2-63.6h62c45.9 0 62.6-0.3 64.5-1.2 5.8-2.6 7.1-10.3 2.6-14.9l-2.9-2.9h-69.7-69.7z"/>
		<path id="Layer" class="s0" d="m277.9 2.9c-3.7 3.8-3.9 8.8-0.5 12.8l2.4 2.8 63.6 0.3 63.6 0.2v61.6c0 67.4-0.1 65.9 5.9 68.4 3.8 1.5 7.5 0.7 10.7-2.5l2.4-2.4v-69.1-69.2l-2.9-2.9-2.9-2.9h-69.7-69.7z"/>
		<path id="Layer" fill-rule="evenodd" class="s0" d="m115.3 61.4l39.9 0.1 2.9 3.3 3 3.3-0.3 41.5-0.3 41.6-5.6 4.8h-82.8l-5.6-4.8v-84l2.4-2.6c1.3-1.4 3.3-2.7 4.5-2.9 1.1-0.3 20-0.4 41.9-0.3zm26.7 18.6h-57v57h57z"/>
		<path id="Layer" class="s0" d="m95 109v19h18.5 18.5v-19-19h-18.5-18.5z"/>
		<path id="Layer" fill-rule="evenodd" class="s0" d="m194 61h38v38h19v38h-19v19h19v19h19v19h-38v19h-19v19h19v19h-19v38h19v-19h19v-19h19v-19h-19v-19h19v19h19v-57h19v57h19v-19h19v-19h-19v-19h19v19h19v19h-19v19h19.1l-0.3 9.2-0.3 9.3-9.2 0.3-9.3 0.3v-19.1h-19v38h19v19h19l-0.2 18.7-0.3 18.8-9.2 0.3-9.3 0.3v18.9h19.1l-0.3 9.2-0.3 9.3-18.7 0.3-18.8 0.2v-38h19v-38h-38v-19h-19v38h38.1l-0.3 9.2-0.3 9.3-18.4 0.6-0.6 18.4-18.4 0.6-0.6 18.4-9.2 0.3-9.3 0.3v-19.1h-18.9l-0.3 9.3-0.3 9.2-9.2 0.3-9.3 0.3v-19.1h-19v19h-19v-19h-19v-19h19v-19h19v-19h-38v-19h19v-19h-19v-19h19v-19h19v-19h-38v19h-19v38h-19v-38h-19v19h-19v19l-18.7-0.2-18.8-0.3-0.3-9.3-0.3-9.2h38.1v-38h-19v19h-19v-19h19v-19h38v19h19v-19h19v19h19v-19h38v19h19v-38h-57v-38h19v-19h19v-19h-19zm38 38h-19v19h-19v19h38zm-76 95h-19v19h19zm152 38h-19v19h-19v19h-19v19h-19v19h-19v19h-19v19h19v-19h38v-19h19v38h19v-38h-19v-38h19v-19h19zm-95 0h-19v19h19z"/>
		<path id="Layer" fill-rule="evenodd" class="s0" d="m314.2 61.4l39.8 0.1 2.7 2.8 2.8 2.7 0.3 40.2c0.2 29-0.1 41-0.9 43.1-2.4 5.8-1.6 5.7-46.6 5.7h-41.2l-5.6-4.8-0.6-83 2.6-3c1.4-1.7 3.6-3.3 4.8-3.5 1.2-0.3 20.1-0.4 41.9-0.3zm26.8 18.6h-57v57h57z"/>
		<path id="Layer" class="s0" d="m294 109v19h18.5 18.5v-19-19h-18.5-18.5z"/>
		<path id="Layer" fill-rule="evenodd" class="s0" d="m72.1 270h82.8l5.6 4.8 0.3 41.6 0.3 41.5-3 3.3-2.9 3.3h-83.2l-2.7-2.8-2.8-2.7v-84.2zm69.9 19h-57v57h57z"/>
		<path id="Layer" class="s0" d="m95 317v19h18.5 18.5v-19-19h-18.5-18.5z"/>
		<path id="Layer" class="s0" d="m4.8 275.6c-1.5 0.8-3.2 2.3-3.8 3.4-0.6 1.2-1 25.9-1 71.5v69.7l2.9 2.9 2.9 2.9h69 69l3.1-2.6c4-3.3 4.3-8.9 0.7-13.1l-2.4-2.8-63.1-0.3-63.1-0.2v-62.6c0-67.8 0.1-66.7-5.5-69.2-3.4-1.5-5.4-1.5-8.7 0.4z"/>
		<path id="Layer" class="s0" d="m412.1 275.4c-5.1 2.8-5 1.6-5.1 68.8v62.8l-64.1 0.2-64.1 0.3-2.4 2.8c-3.4 4-3.2 9 0.5 12.8l2.9 2.9h70.2 70.2l2.9-2.9 2.9-2.9v-69.7c0-45.8-0.4-70.3-1-71.6-1.2-2.2-6.1-4.9-8.7-4.9-1 0.1-2.9 0.7-4.2 1.4z"/>
	</g>
</svg>