<svg version="1.2" xmlns="http://www.w3.org/2000/svg" viewBox="0 0 537 186" width="537" height="186">
	<title>vetorized_logo-svg</title>
	<style>
		.s0 { fill: #000000 } 
	</style>
	<g id="Layer">
		<g id="Digital">
			<path id="Layer" class="s0" d="m158 23.3c-9.9 0.7-19.4 4.3-27.2 10.2-3.4 2.5-7 6.2-9.4 9.5-0.9 1.2-1 2-0.4 2.6 0.2 0.3 0.6 0.4 1.1 0.3 0.6 0 0.8-0.2 2.1-1.9 3.1-3.9 7.7-8 12-10.7 2.1-1.4 6.8-3.6 9.3-4.5 4.9-1.7 9.1-2.4 14.5-2.6q10.5-0.3 20 3.9c1.1 0.6 2.2 1 2.5 1 0.9 0 1.6-1.3 1.2-2.1-0.3-0.5-3.2-1.9-6-2.9-4.3-1.5-8.7-2.4-13.4-2.8-3-0.2-3.2-0.2-6.3 0z"/>
			<path id="Layer" class="s0" d="m156.7 29.5c-6.5 0.9-11.1 2.3-15.9 4.8-4.3 2.2-7.5 4.7-11.1 8.3-3.6 3.7-6 7.2-8.3 12-3.7 7.8-5.1 17.5-3.5 25.8 0.8 4.5 0.3 7.3-1.9 10.2-0.5 0.7-0.9 1.3-0.9 1.6 0 1 1 1.7 2 1.3 0.3-0.1 0.9-0.7 1.3-1.3 2.6-3.6 3.3-7 2.3-12.1-0.3-2-0.4-3-0.4-7.1 0-5.2 0.2-6.9 1.5-11.3 3.9-13.6 14.9-24.4 28.5-28.1 4.5-1.2 10.1-1.7 14.5-1.2 2.7 0.2 3.1 0.1 3.3-1 0.2-0.7-0.3-1.5-1.1-1.7-0.6-0.2-9.3-0.4-10.3-0.2z"/>
			<path id="Layer" class="s0" d="m173.1 31.7c-0.6 0.6-0.7 1.4-0.2 2 0.2 0.2 1.1 0.6 2.1 1 2.4 0.8 6.5 2.9 8.5 4.2 4.9 3.3 9.3 7.8 12.3 12.6 3.8 6.1 5.7 12.5 6.8 23.2 0.5 4.3 0.5 14.4 0 18.6-0.3 2.9-0.3 3 0.1 3.4 0.4 0.6 1.5 0.8 2.1 0.3 0.7-0.7 1-4 1-12.9 0-8.3-0.1-10-1.2-16.6-1.8-10.7-5.6-18.3-12.6-25.3-4.6-4.6-9.5-7.8-15.4-10.1-2.5-0.9-3-1-3.5-0.4z"/>
			<path id="Layer" class="s0" d="m187.9 32.5c-0.5 0.5-0.6 1.3-0.2 1.8 0.1 0.1 0.7 0.6 1.3 1.1 3.6 2.6 6.8 5.8 9.5 9.4 2.1 2.8 3.3 4.8 4.8 8 3 6.1 4.4 11.8 4.6 18.4l0.2 3.5 0.5 0.4q1 0.9 2 0l0.4-0.5-0.1-3c-0.4-11.1-4.3-21.4-11.2-30-3.2-3.9-9.6-9.6-10.9-9.6-0.2 0-0.6 0.2-0.9 0.5z"/>
			<path id="Layer" class="s0" d="m155.9 35.7c-3.8 0.5-8.2 1.9-11.7 3.6-7.6 3.8-13.4 9.8-17.1 17.5-1.5 3-2.2 5-2.8 7.9-0.6 2.5-0.5 3.1 0.4 3.5 0.6 0.3 0.9 0.3 1.4-0.2 0.4-0.3 0.6-0.8 0.9-2.2 4.1-19.2 23.6-31.4 42.7-26.5 12 3.1 21.6 12.5 24.9 24.3 0.3 1.1 0.8 3.2 1 4.7 0.3 1.6 0.7 3 0.8 3.3 0.3 0.5 1.1 0.7 1.8 0.3 0.9-0.5 0.9-0.9 0.1-5.4-1-5-3.2-10.4-5.8-14.3-6-9-15.9-15.1-26.4-16.5-2.7-0.4-7.6-0.4-10.2 0z"/>
			<path id="Layer" class="s0" d="m156.5 41.7c-5.2 0.9-9.5 2.6-9.5 3.8 0 0.5 0.4 1.2 0.9 1.4 0.5 0.2 0.8 0.1 2.5-0.5 9.5-3.7 19.6-2.4 27.7 3.5 1.2 0.9 1.8 1.2 2.2 1.2 1.3 0 1.8-1.4 0.9-2.4-0.8-0.9-3.5-2.7-5.9-3.9-2.6-1.3-5.1-2.2-8-2.8-2.4-0.5-8.4-0.7-10.8-0.3z"/>
			<path id="Layer" class="s0" d="m156.7 47.9c-5.4 0.9-9.8 3.2-13.7 7.1q-5.9 6-7.3 14.2c-0.3 2.1-0.3 6.1 0.1 8.2 0.1 0.9 0.3 2.2 0.4 2.7 0.1 0.6 0.2 2.6 0.2 4.4v3.3l0.5 0.4c0.7 0.5 1.3 0.5 1.8 0 0.4-0.4 0.5-0.8 0.6-2.2 0.2-2 0-5.2-0.3-7.3-0.8-4.1-0.9-7.1-0.3-10 2-9.1 8.8-15.9 18-17.9 2.1-0.5 6.6-0.5 8.7 0q6.6 1.4 11.3 5.9c2.1 2 3.6 4 4.8 6.5 1.2 2.5 1.8 4.6 2.4 8.7 1.2 7.8 1.3 15.1 0.3 22.4-0.3 2.4-0.3 2.7 0 3.1 0.4 0.7 1 0.9 1.7 0.6 0.7-0.3 0.9-0.9 1.2-3.5 1.2-8.8 0.9-18-0.8-26.1-1.1-5.4-3.4-9.6-7.1-13.4-4-3.9-8.8-6.3-14.3-7.2-2.2-0.4-5.9-0.4-8.2 0.1z"/>
			<path id="Layer" class="s0" d="m139.9 49.5c-5 4.5-8.6 10.8-10 17.7-0.5 2.4-0.5 9.7 0 11.8 0.5 2.1 0.6 6.6 0.2 8.8-0.4 2.3-1.1 4.4-2.2 6.5-1.3 2.5-2.7 4.4-4.8 6.4-1.9 1.8-2.1 2.3-1.3 3.1 0.8 0.8 1.4 0.6 2.9-0.7 4.1-3.4 7-8.5 8.2-14.2 0.6-2.8 0.6-6.9-0.1-10-0.6-3.2-0.6-8.5 0-11.4 0.6-2.8 1.4-5 2.6-7.4 1.5-3 3.1-5.1 5.7-7.6 1.9-2 2.3-2.4 2.3-2.9 0-0.8-0.6-1.4-1.4-1.4-0.5 0-0.9 0.3-2.1 1.3z"/>
			<path id="Layer" class="s0" d="m117.4 49.7c-0.5 0.3-0.9 1-2 3.4-3 6.9-4.4 14.2-4.2 21.6 0.2 4.8 1.2 10.7 2 11.2 0.5 0.4 1.5 0.3 1.9-0.1 0.5-0.5 0.5-0.9 0-3-1.3-6.1-1.3-13.6 0.1-19.9 0.7-2.8 1.9-6.6 3.2-9.4 0.6-1.2 1.1-2.4 1.1-2.5 0-0.4-0.8-1.2-1.3-1.3-0.2-0.1-0.5 0-0.8 0z"/>
			<path id="Layer" class="s0" d="m157.8 53.8c-3 0.5-5.3 1.5-7.8 3.1-6.5 4.4-9.7 12.3-8.1 20.2 2.3 11.9-1.7 24.1-10.4 32.4-1.2 1.1-1.5 1.5-1.5 1.9 0 0.8 0.7 1.6 1.4 1.6 0.6 0 2.3-1.5 4.2-3.6 8-9 11.3-20.5 9.2-32.5-0.6-3.1-0.6-4.2-0.2-6.5 1.3-7.4 7-12.9 14.6-13.9 0.8-0.1 2-0.2 2.4-0.2 1.4 0.1 1.5 0.1 1.9-0.3 0.6-0.6 0.5-1.4-0.1-2-0.4-0.4-0.5-0.5-2.4-0.5-1 0-2.5 0.2-3.2 0.3z"/>
			<path id="Layer" class="s0" d="m184.5 54.4c-0.2 0.2-0.4 0.6-0.4 0.9 0 0.2 0.4 1 0.9 1.8 1.3 1.9 2.8 5.1 3.5 7.4 0.7 1.9 1.4 6 1.9 9.5 1.5 12.8 0 26.4-4.6 38.8-0.5 1.4-0.5 1.5-0.2 2 0.3 0.6 1 0.9 1.7 0.7 0.7-0.1 1.1-1 2.4-5.1 3-9.4 4.3-18.4 4.1-28.4-0.3-10.1-1.7-17.6-4.3-22.9-1.2-2.3-2.7-4.8-3.2-5-0.6-0.3-1.3-0.2-1.8 0.3z"/>
			<path id="Layer" class="s0" d="m169 56.2c-0.5 0.5-0.7 1.1-0.4 1.6 0.1 0.2 0.8 0.8 1.5 1.3 2.7 1.7 4.5 3.8 5.9 6.5 1.2 2.5 1.9 5.5 2.5 11.4 0.4 3.7 0.3 12.4-0.2 15.9q-1.8 13-7.5 23.8c-0.7 1.4-1.5 2.9-1.7 3.3-0.3 0.6-0.3 0.7-0.1 1.2 0.2 0.3 0.5 0.6 0.8 0.8 1.1 0.7 1.9-0.3 4.5-5.7 5.5-11.3 8.1-24.4 7.3-36.6-0.4-6-1.3-11.4-2.5-14.2-1.3-3.3-4.1-6.6-7.2-8.7-1.7-1.1-2.2-1.2-2.9-0.6z"/>
			<path id="Layer" class="s0" d="m158.7 59.7c-3 0.7-5 1.8-7.1 3.9-2 1.9-3.1 3.7-3.6 6-0.3 1.2-0.3 1.3 0 1.7 0.4 0.7 1.1 0.9 1.6 0.7 0.7-0.2 0.8-0.5 1.2-1.8 0.7-2.3 2.2-4.4 4.2-5.8 3.9-2.7 8.8-2.5 12.7 0.4 1.1 0.8 2.5 2.6 3.1 3.9 0.9 2 1.7 7.3 1.9 12.6 0.2 3 0.2 3.2 0.6 3.6 0.9 0.7 2.2 0.2 2.4-0.9 0.2-0.9-0.3-6.7-0.7-9.8-0.8-5.7-1.7-7.9-4.3-10.5-2.7-2.7-5.4-3.9-9.1-4.1-1.2 0-2.5 0.1-2.9 0.1z"/>
			<path id="Layer" class="s0" d="m159.3 65.8c-1.2 0.3-2.9 1.3-3.7 2.2-1.8 1.9-2.4 4.5-1.8 7.2 1.1 5.1 1.1 11.3 0.1 17.1-0.3 1.9-0.3 2-0.1 2.5 0.7 1 2 0.9 2.5-0.2 0.1-0.2 0.4-1.6 0.7-2.9 0.4-2.1 0.4-3.1 0.4-7.8 0-5 0-5.6-0.5-8.1-0.4-2.2-0.5-2.9-0.3-3.6 0.5-2.2 2.2-3.6 4.5-3.6q2.5 0 3.9 2.1c1.3 2 2.1 12 1.5 18.4-1 11-5.1 21.7-11.7 30.4-1 1.4-1.1 2.1-0.4 2.8q1 1 2-0.2c1.8-1.8 4.8-6.6 6.8-10.8 4.3-8.7 6.4-17.4 6.4-27.1 0-6-0.8-12.4-1.8-14.4-1.6-3.1-5.1-4.8-8.5-4z"/>
			<path id="Layer" class="s0" d="m160.1 72.2c-0.5 0.5-0.5 0.7-0.5 1.2 0.9 4.2 1.3 10.9 0.9 15.1-1 11-5.1 21-12 29.4-1.5 1.8-1.7 2.3-0.9 3.1 1.1 1 1.9 0.4 4.8-3.5 9.2-12.2 12.8-27 10.5-42.1-0.4-2.7-0.6-3.3-1.4-3.6-0.7-0.2-0.8-0.2-1.4 0.4z"/>
			<path id="Layer" class="s0" d="m123.8 73.6c-0.4 0.4-0.4 0.6-0.3 2.5 0 1.1 0.3 3 0.5 4.1 1.1 6.3-0.5 11.8-4.9 16-1.2 1.1-1.4 1.8-0.9 2.5 0.4 0.4 1.2 0.7 1.7 0.5 0.6-0.2 3.1-2.9 4.1-4.3 2.4-3.6 3.6-8.5 3.2-12.8-0.1-1-0.3-2.2-0.4-2.6-0.1-0.4-0.3-1.9-0.4-3.2-0.3-2.2-0.3-2.5-0.7-2.8-0.6-0.5-1.4-0.5-1.9 0.1z"/>
			<path id="Layer" class="s0" d="m148.6 77.3c-0.3 0.4-0.3 0.5-0.2 2.5 0.1 1.2 0.1 3.3 0.1 4.9-0.1 10.2-4.2 20.2-11.4 27.6-2.1 2.2-2.3 2.8-1.6 3.6 0.9 0.8 1.5 0.6 3-0.8 5.2-5 9.4-12.2 11.4-19.5 1.1-4.2 1.4-6.5 1.5-11.2 0-4.9-0.2-6.6-0.7-7.1-0.5-0.5-1.6-0.5-2.1 0z"/>
			<path id="Layer" class="s0" d="m197.3 77.4c-0.4 0.5-0.4 0.7-0.3 4.4 0.2 7.5-0.6 15.2-2.4 23-0.7 2.8-0.7 3.3 0.2 3.8 0.5 0.2 0.7 0.2 1.1 0 0.8-0.3 0.8-0.4 1.5-3.2 1.7-7.1 2.5-13.8 2.5-21.7 0-5-0.2-6.1-0.7-6.5-0.6-0.5-1.5-0.3-1.9 0.2z"/>
			<path id="Layer" class="s0" d="m172.9 90.5c-0.3 0.2-0.5 1.2-0.8 3.2-1.5 9.3-4.7 17.7-9.8 25.6-0.7 1.2-1.1 2-1.1 2.4 0 1.3 1.7 1.8 2.6 0.7 1.3-1.6 4.3-7 6-10.8 2.7-6.1 5-14.2 5.3-19.1 0.1-1.4 0.1-1.7-0.2-2-0.4-0.5-1.6-0.5-2 0z"/>
			<path id="Layer" class="s0" d="m135.1 93.7c-0.1 0-0.7 1.2-1.4 2.5-1.8 3.8-3.8 6.5-6.6 9-1.6 1.4-1.9 1.9-1.5 2.8 0.3 0.7 0.9 0.9 1.7 0.7 0.7-0.1 3.8-3.2 5.4-5.2 2.2-2.9 4.7-7.5 4.7-8.7 0-0.9-1.3-1.6-2.3-1.1z"/>
			<path id="Layer" class="s0" d="m151.9 100.4c-0.2 0.2-0.7 1.1-1.1 2.1-1.8 4.5-4.8 9.1-8.4 13.1-1.6 1.8-1.8 2.4-1.1 3.2 0.3 0.4 1.2 0.6 1.7 0.3 0.5-0.3 2.9-3 4.1-4.6 2.6-3.4 4.9-7.4 6.5-11.1 0.8-1.9 0.8-2.1 0.3-2.8-0.5-0.6-1.4-0.6-2-0.2z"/>
			<path id="Layer" class="s0" d="m182.9 103.2c-0.4 0.3-0.7 1.1-1.2 2.7-0.8 3-2.3 6.8-3.6 9.7-1.1 2.5-1.2 3.2-0.7 3.8 0.4 0.5 1.6 0.5 2 0 0.7-0.8 2.9-6 4.3-10 1.7-5.1 1.7-5.8 0.7-6.4-0.7-0.3-1-0.3-1.5 0.2z"/>
		</g>
		<path id="Layer" class="s0" d="m145 13.7c-1.4 0.2-6.6 2.4-11.7 4.9-15.9 7.8-27.7 22.5-31.9 39.7-1.7 6.9-1.5 9.4 1.1 10.4 2.4 0.8 3.4-0.7 5.1-7.3 2.1-8.1 6.5-17.1 11.4-23.2 7-8.7 16.5-14.1 34-19.1 1.8-0.6 2.5-1.5 2.5-3.2 0-2.1-0.5-2.4-4-2.5-2.2-0.1-5.1 0-6.5 0.3z"/>
		<path id="Layer" class="s0" d="m165 15.3c0 3 1.7 4.1 7.5 5.1 2.2 0.4 7.3 2.3 11.3 4.3 14.2 6.7 26.7 22.7 28.7 36.5 1.2 8 7.5 10.6 7.5 3.1 0-4.9-4.5-17.6-8.4-23.6-9.2-14.5-26.1-25.8-40.8-27.4-5.7-0.6-5.8-0.6-5.8 2z"/>
		<path id="Layer" fill-rule="evenodd" class="s0" d="m485.1 24.6c17.3 5.1 30 18 34.4 35.1 1.9 7.4 1.9 19.3 0 26.8-6.7 25.5-33.8 41.2-60.4 35-37.5-8.9-51-56.8-23.7-84.1 6.5-6.5 11.7-9.6 20.6-12.5 7.2-2.3 21.7-2.5 29.1-0.3zm-33.4 29.3c-9.8 10.9-8 32.8 3.4 41 10.9 7.9 27.7 6.2 35.8-3.6 7-8.5 8.1-23 2.5-33.2-3.6-6.7-7.4-9.6-14.9-11.6-11.1-2.9-19.6-0.5-26.8 7.4z"/>
		<path id="Layer" fill-rule="evenodd" class="s0" d="m16 24h19.3c29.3 0 37.1 1.7 46 9.9 6.7 6.2 9.2 12.6 9.2 23.6 0 7.3-0.4 10-2.3 14-6.1 13.3-18.8 19.4-40.9 19.5h-8.3v30h-23zm31.5 22h-8.5v23h8.5c10.6 0 15.7-1.8 17.9-6.5 0.9-1.8 1.6-4.1 1.6-5 0-3.9-3.2-8.4-7.1-9.9-2.5-1-7-1.6-12.4-1.6z"/>
		<path id="Layer" class="s0" d="m231 72.5v48.5h11.5 11.5l0.2-28.7 0.3-28.7 10.7 14.9c5.8 8.3 15.1 21.1 20.6 28.5l9.9 13.5 11.1 0.3 11.2 0.3v-48.6-48.5h-11.5-11.5l-0.2 28.6-0.3 28.6-5.9-8.3c-3.3-4.6-12.7-17.5-20.9-28.7l-14.9-20.2h-10.9-10.9z"/>
		<path id="Layer" class="s0" d="m329 35v11h14.5 14.5v37.5 37.5h11.5 11.5v-37.5-37.5h14.5 14.5v-11-11h-40.5-40.5z"/>
		<path id="Layer" class="s0" d="m100.4 78.4c-1.1 2.8 1.8 13.1 5.9 21.6 7.2 14.8 20.7 26 37 30.7 8.8 2.6 12.7 2.4 12.7-0.6 0-2.7-2-4-8-5.1-8.7-1.6-17.8-6.7-25-14-8-7.9-11.2-13.2-14.1-23.6-1.3-4.3-2.7-8.5-3.2-9.2-1.3-1.7-4.6-1.5-5.3 0.2z"/>
		<path id="Layer" class="s0" d="m214.5 78c-0.4 0.6-1.3 3.9-2.1 7.2-2.2 9.3-6.3 16.6-13.6 24.4-7.6 8-15.9 12.8-26.6 15.4-7.2 1.8-9.4 3.8-7.2 6.5 1 1.2 2.3 1.5 5.4 0.9 12.4-2 25.2-8.9 33.9-18.4 6.5-7 10-13 13.3-22.8 3-8.8 2.9-13.6-0.3-14-1.1-0.2-2.4 0.2-2.8 0.8z"/>
		<path id="Layer" class="s0" d="m242 160.9c0 9.5 0.2 11.1 1.6 11.1 1.4 0 1.5-1.3 1.2-9.1-0.1-5 0.1-8.5 0.5-7.7 0.4 0.7 2.8 4.8 5.3 9 6.3 11 7.4 10.5 7.4-3.2 0-9.1-0.3-11-1.5-11-1.2 0-1.5 1.6-1.5 8.7v8.8l-4.8-8.5c-2.6-4.8-5.5-8.6-6.4-8.8-1.6-0.3-1.8 0.7-1.8 10.7z"/>
		<path id="Layer" class="s0" d="m264 161v11h6.5c3.7 0 6.5-0.4 6.5-1 0-0.6-2.2-1-5-1h-5v-4.5-4.5h4c2.2 0 4-0.5 4-1 0-0.6-1.8-1-4-1-3.9 0-4-0.1-4-3.5 0-3.5 0-3.5 4.5-3.5 2.5 0 4.5-0.5 4.5-1 0-0.6-2.7-1-6-1h-6z"/>
		<path id="Layer" class="s0" d="m279 151c0 0.5 1.6 1 3.5 1h3.5v10c0 8.2 0.3 10 1.5 10 1.2 0 1.5-1.8 1.5-10v-10h3c1.7 0 3-0.5 3-1 0-0.6-3.3-1-8-1-4.7 0-8 0.4-8 1z"/>
	</g>
</svg>