<svg xmlns="http://www.w3.org/2000/svg" xmlns:xlink="http://www.w3.org/1999/xlink" version="1.1" id="Ebene_1" x="0px" y="0px" style="enable-background:new 0 0 235.35 76.54;" xml:space="preserve" viewBox="17.08 17.09 201.29 42.56">
<style type="text/css">
	.st0{fill:#F8AD4B;}
	.st1{fill:#fff;}
	.st2{fill:none;}
</style>
<g>
	<g>
		<g>
			<rect x="17.56" y="17.61" class="st0" width="41.56" height="41.56"/>
			<path d="M58.64,18.09v40.6h-40.6v-40.6H58.64 M59.6,17.13H17.08v42.52H59.6V17.13L59.6,17.13z"/>
		</g>
		<path class="st1" d="M56.77,38.06c-0.5,0.02-0.97-0.17-1.32-0.51c-0.35-0.35-0.53-0.82-0.51-1.32c0.01-0.35,0.12-0.68,0.31-0.98    L54.5,34.5c-0.29,0.19-0.63,0.3-0.98,0.31c-0.5,0.02-0.97-0.17-1.32-0.51c-0.35-0.35-0.53-0.82-0.51-1.32    C51.7,32.63,51.81,32.29,52,32l-0.75-0.75c-0.29,0.19-0.63,0.3-0.98,0.31c-0.5,0.02-0.97-0.17-1.32-0.51    c-0.35-0.35-0.53-0.82-0.51-1.32c0.01-0.35,0.12-0.68,0.31-0.98l-0.75-0.75c-0.29,0.19-0.63,0.3-0.98,0.31    c-0.5,0.02-0.97-0.17-1.32-0.51c-0.35-0.35-0.53-0.82-0.51-1.32c0.01-0.35,0.12-0.68,0.31-0.98l-0.75-0.75    c-0.29,0.19-0.63,0.3-0.98,0.31c-0.5,0.02-0.97-0.17-1.32-0.51c-0.35-0.35-0.53-0.82-0.51-1.32c0.01-0.35,0.12-0.68,0.31-0.98    l-0.75-0.75c-0.29,0.19-0.63,0.3-0.98,0.31c-0.5,0.02-0.97-0.17-1.32-0.51s-0.53-0.82-0.51-1.32c0.01-0.35,0.12-0.68,0.31-0.98    l-0.64-0.64l-0.67,0.67c0.18,0.29,0.28,0.61,0.29,0.95c0.02,0.5-0.17,0.97-0.51,1.32s-0.82,0.53-1.32,0.51    c-0.34-0.01-0.67-0.11-0.95-0.29l-0.76,0.76c0.18,0.29,0.28,0.61,0.29,0.95c0.02,0.5-0.17,0.97-0.51,1.32    c-0.35,0.35-0.82,0.53-1.32,0.51c-0.34-0.01-0.67-0.11-0.95-0.29l-0.76,0.76c0.18,0.29,0.28,0.61,0.29,0.95    c0.02,0.5-0.17,0.97-0.51,1.32c-0.35,0.35-0.82,0.53-1.32,0.51c-0.34-0.01-0.67-0.11-0.95-0.29l-0.76,0.76    c0.18,0.29,0.28,0.61,0.29,0.95c0.02,0.5-0.17,0.97-0.51,1.32c-0.35,0.35-0.82,0.53-1.32,0.51c-0.34-0.01-0.67-0.11-0.95-0.29    l-0.76,0.76c0.18,0.29,0.28,0.61,0.29,0.95c0.02,0.5-0.17,0.97-0.51,1.32c-0.35,0.35-0.82,0.53-1.32,0.51    c-0.34-0.01-0.67-0.11-0.95-0.29l-0.76,0.76c0.18,0.29,0.28,0.61,0.29,0.95c0.02,0.5-0.17,0.97-0.51,1.32    c-0.35,0.35-0.82,0.53-1.32,0.51c-0.34-0.01-0.67-0.11-0.95-0.29l-0.62,0.62l0.65,0.65c0.28-0.17,0.6-0.26,0.93-0.27    c0.5-0.02,0.97,0.17,1.32,0.51c0.35,0.35,0.53,0.82,0.51,1.32c-0.01,0.33-0.11,0.65-0.27,0.93l0.77,0.77    c0.28-0.17,0.6-0.26,0.93-0.27c0.5-0.02,0.97,0.17,1.32,0.51c0.35,0.35,0.53,0.82,0.51,1.32c-0.01,0.33-0.11,0.65-0.27,0.93    l0.77,0.77c0.28-0.17,0.6-0.26,0.93-0.27c0.5-0.02,0.97,0.17,1.32,0.51c0.35,0.35,0.53,0.82,0.51,1.32    c-0.01,0.33-0.11,0.65-0.27,0.93l0.77,0.77c0.28-0.17,0.6-0.26,0.93-0.27c0.5-0.02,0.97,0.17,1.32,0.51    c0.35,0.35,0.53,0.82,0.51,1.32c-0.01,0.33-0.11,0.65-0.27,0.93l0.77,0.77c0.28-0.17,0.6-0.26,0.93-0.27    c0.5-0.02,0.97,0.17,1.32,0.51c0.35,0.35,0.53,0.82,0.51,1.32c-0.01,0.33-0.11,0.65-0.27,0.93l0.77,0.77    c0.28-0.17,0.6-0.26,0.93-0.27c0.5-0.02,0.97,0.17,1.32,0.51c0.35,0.35,0.53,0.82,0.51,1.32c-0.01,0.33-0.11,0.65-0.27,0.93    l0.65,0.65l0.62-0.62c-0.18-0.29-0.28-0.61-0.29-0.95c-0.02-0.5,0.17-0.97,0.51-1.32c0.35-0.35,0.82-0.53,1.32-0.51    c0.34,0.01,0.67,0.11,0.95,0.29l0.76-0.76c-0.18-0.29-0.28-0.61-0.29-0.95c-0.02-0.5,0.17-0.97,0.51-1.32    c0.35-0.35,0.82-0.53,1.32-0.51c0.34,0.01,0.67,0.11,0.95,0.29l0.76-0.76c-0.18-0.29-0.28-0.61-0.29-0.95    c-0.02-0.5,0.17-0.97,0.51-1.32c0.35-0.35,0.82-0.53,1.32-0.51c0.34,0.01,0.67,0.11,0.95,0.29l0.76-0.76    c-0.18-0.29-0.28-0.61-0.29-0.95c-0.02-0.5,0.17-0.97,0.51-1.32c0.35-0.35,0.82-0.53,1.32-0.51c0.34,0.01,0.67,0.11,0.95,0.29    l0.76-0.76c-0.18-0.29-0.28-0.61-0.29-0.95c-0.02-0.5,0.17-0.97,0.51-1.32c0.35-0.35,0.82-0.53,1.32-0.51    c0.34,0.01,0.67,0.11,0.95,0.29l0.76-0.76c-0.18-0.29-0.28-0.61-0.29-0.95c-0.02-0.5,0.17-0.97,0.51-1.32    c0.35-0.35,0.82-0.53,1.32-0.51c0.34,0.01,0.67,0.11,0.95,0.29l0.67-0.67l-0.64-0.64C57.46,37.94,57.12,38.05,56.77,38.06z"/>
		<path d="M58.04,36.83l-0.27-0.27l-0.26,0.28l-0.03,0.03c-0.2,0.2-0.46,0.32-0.74,0.33c-0.27,0.01-0.51-0.09-0.69-0.26    c-0.18-0.18-0.27-0.42-0.26-0.69c0.01-0.27,0.13-0.53,0.33-0.74l0.03-0.03l0.28-0.26l-0.27-0.27l-1.38-1.38l-0.27-0.27l-0.26,0.28    l-0.03,0.03c-0.2,0.2-0.46,0.32-0.74,0.33c-0.27,0.01-0.51-0.08-0.69-0.26c-0.18-0.18-0.27-0.42-0.26-0.69    c0.01-0.27,0.13-0.53,0.33-0.74l0.03-0.03l0.28-0.26l-0.27-0.27l-1.38-1.38l-0.27-0.27l-0.26,0.28l-0.03,0.03    c-0.2,0.2-0.46,0.32-0.74,0.33c-0.27,0.01-0.51-0.09-0.69-0.26c-0.18-0.18-0.27-0.42-0.26-0.69c0.01-0.27,0.13-0.53,0.33-0.74    l0.03-0.03l0.28-0.26l-0.27-0.27l-1.38-1.38l-0.27-0.27l-0.26,0.28l-0.03,0.03c-0.2,0.2-0.46,0.32-0.74,0.33    c-0.27,0.01-0.51-0.08-0.69-0.26c-0.18-0.18-0.27-0.42-0.26-0.69c0.01-0.27,0.13-0.53,0.33-0.74l0.03-0.03l0.28-0.26l-0.27-0.27    l-1.38-1.38l-0.27-0.27l-0.26,0.28l-0.03,0.03c-0.2,0.2-0.46,0.32-0.74,0.33c-0.27,0.01-0.51-0.08-0.69-0.26    c-0.18-0.18-0.27-0.42-0.26-0.69c0.01-0.27,0.13-0.53,0.33-0.74l0.03-0.03l0.28-0.26l-0.27-0.27l-1.38-1.38l-0.27-0.27l-0.26,0.28    l-0.03,0.03c-0.2,0.2-0.46,0.32-0.74,0.33c-0.27,0.01-0.51-0.08-0.69-0.26c-0.18-0.18-0.27-0.42-0.26-0.69    c0.01-0.27,0.13-0.53,0.33-0.74l0.03-0.03l0.28-0.26l-0.27-0.27l-1.3-1.3l-0.26-0.26l-0.26,0.26l-1.32,1.32l-0.26,0.26l0.27,0.26    c0.21,0.21,0.34,0.47,0.35,0.75c0.01,0.27-0.08,0.51-0.26,0.69c-0.18,0.18-0.42,0.27-0.69,0.26c-0.28-0.01-0.55-0.13-0.75-0.35    l-0.26-0.27l-0.26,0.26l-1.38,1.38l-0.26,0.26l0.27,0.26c0.21,0.21,0.34,0.47,0.35,0.75c0.01,0.27-0.08,0.51-0.26,0.69    c-0.18,0.18-0.42,0.27-0.69,0.26c-0.28-0.01-0.55-0.13-0.75-0.35l-0.26-0.27l-0.26,0.26l-1.38,1.38l-0.26,0.26l0.27,0.26    c0.21,0.21,0.34,0.47,0.35,0.75c0.01,0.27-0.08,0.51-0.26,0.69c-0.18,0.18-0.42,0.27-0.69,0.26c-0.28-0.01-0.55-0.13-0.75-0.35    l-0.26-0.27l-0.26,0.26L27,28.47l-0.26,0.26L27.01,29c0.21,0.21,0.34,0.47,0.35,0.75c0.01,0.27-0.08,0.51-0.26,0.69    c-0.18,0.18-0.42,0.27-0.69,0.26c-0.28-0.01-0.55-0.13-0.75-0.35l-0.26-0.27l-0.26,0.26l-1.38,1.38l-0.26,0.26l0.27,0.26    c0.21,0.21,0.34,0.47,0.35,0.75c0.01,0.27-0.08,0.51-0.26,0.69c-0.18,0.18-0.42,0.27-0.69,0.26c-0.28-0.01-0.55-0.13-0.75-0.35    l-0.26-0.27l-0.26,0.26l-1.38,1.38l-0.26,0.26l0.27,0.26c0.21,0.21,0.34,0.47,0.35,0.75c0.01,0.27-0.08,0.51-0.26,0.69    c-0.18,0.18-0.42,0.27-0.69,0.26c-0.28-0.01-0.55-0.13-0.75-0.35l-0.26-0.27l-0.26,0.26l-1.28,1.28l-0.26,0.26l0.26,0.26l1.3,1.3    l0.26,0.26l0.26-0.26c0.2-0.2,0.47-0.32,0.74-0.33c0.27-0.01,0.51,0.08,0.69,0.26c0.18,0.18,0.27,0.42,0.26,0.69    c-0.01,0.27-0.13,0.54-0.33,0.74l-0.26,0.26l0.26,0.26l1.37,1.37l0.26,0.26l0.26-0.26c0.2-0.2,0.47-0.32,0.74-0.33    c0.27-0.01,0.51,0.08,0.69,0.26c0.18,0.18,0.27,0.42,0.26,0.69c-0.01,0.27-0.13,0.54-0.33,0.74l-0.26,0.26l0.26,0.26l1.37,1.37    l0.26,0.26l0.26-0.26c0.2-0.2,0.47-0.32,0.74-0.33c0.27-0.01,0.51,0.08,0.69,0.26c0.18,0.18,0.27,0.42,0.26,0.69    c-0.01,0.27-0.13,0.54-0.33,0.74l-0.26,0.26l0.26,0.26l1.37,1.37l0.26,0.26l0.26-0.26c0.2-0.2,0.47-0.32,0.74-0.33    c0.27-0.01,0.51,0.08,0.69,0.26c0.18,0.18,0.27,0.42,0.26,0.69c-0.01,0.27-0.13,0.54-0.33,0.74l-0.26,0.26l0.26,0.26l1.37,1.37    l0.26,0.26l0.26-0.26c0.2-0.2,0.47-0.32,0.74-0.33c0.27-0.01,0.51,0.08,0.69,0.26c0.18,0.18,0.27,0.42,0.26,0.69    c-0.01,0.27-0.13,0.54-0.33,0.74l-0.26,0.26l0.26,0.26l1.37,1.37l0.26,0.26l0.26-0.26c0.2-0.2,0.47-0.32,0.74-0.33    c0.27-0.01,0.51,0.08,0.69,0.26c0.18,0.18,0.27,0.42,0.26,0.69c-0.01,0.27-0.13,0.54-0.33,0.74l-0.26,0.26l0.26,0.26l1.3,1.3    l0.26,0.26l0.26-0.26l1.28-1.28l0.26-0.26l-0.27-0.26c-0.21-0.21-0.34-0.47-0.35-0.75c-0.01-0.27,0.08-0.51,0.26-0.69    c0.18-0.18,0.42-0.27,0.69-0.26c0.28,0.01,0.55,0.13,0.75,0.35l0.26,0.27l0.26-0.26l1.38-1.38l0.26-0.26l-0.27-0.26    c-0.21-0.21-0.34-0.47-0.35-0.75c-0.01-0.27,0.09-0.51,0.26-0.69c0.18-0.18,0.42-0.27,0.69-0.26c0.28,0.01,0.55,0.13,0.75,0.35    l0.26,0.27l0.26-0.26l1.38-1.38l0.26-0.26l-0.27-0.26c-0.21-0.21-0.34-0.47-0.35-0.75c-0.01-0.27,0.08-0.51,0.26-0.69    c0.18-0.18,0.42-0.27,0.69-0.26c0.28,0.01,0.55,0.13,0.75,0.35L48,50l0.26-0.26l1.38-1.38l0.26-0.26l-0.27-0.26    c-0.21-0.21-0.34-0.47-0.35-0.75c-0.01-0.27,0.08-0.51,0.26-0.69c0.18-0.18,0.42-0.27,0.69-0.26c0.28,0.01,0.55,0.13,0.75,0.35    l0.26,0.27l0.26-0.26l1.38-1.38l0.26-0.26l-0.27-0.26c-0.21-0.21-0.34-0.47-0.35-0.75c-0.01-0.27,0.08-0.51,0.26-0.69    c0.18-0.18,0.42-0.27,0.69-0.26c0.28,0.01,0.55,0.13,0.75,0.35l0.26,0.27l0.26-0.26l1.38-1.38l0.26-0.26l-0.27-0.26    c-0.21-0.21-0.34-0.47-0.35-0.75c-0.01-0.27,0.08-0.51,0.26-0.69c0.18-0.18,0.42-0.27,0.69-0.26c0.28,0.01,0.55,0.13,0.75,0.35    l0.26,0.27l0.26-0.26l1.32-1.32l0.26-0.26l-0.26-0.26L58.04,36.83z M57.73,39.06c-0.29-0.18-0.61-0.28-0.95-0.29    c-0.5-0.02-0.97,0.17-1.32,0.51c-0.35,0.35-0.53,0.82-0.51,1.32c0.01,0.34,0.11,0.67,0.29,0.95l-0.76,0.76    c-0.29-0.18-0.61-0.28-0.95-0.29c-0.5-0.02-0.97,0.17-1.32,0.51c-0.35,0.35-0.53,0.82-0.51,1.32c0.01,0.34,0.11,0.67,0.29,0.95    l-0.76,0.76c-0.29-0.18-0.61-0.28-0.95-0.29c-0.5-0.02-0.97,0.17-1.32,0.51c-0.35,0.35-0.53,0.82-0.51,1.32    c0.01,0.34,0.11,0.67,0.29,0.95l-0.76,0.76c-0.29-0.18-0.61-0.28-0.95-0.29c-0.5-0.02-0.97,0.17-1.32,0.51    c-0.35,0.35-0.53,0.82-0.51,1.32c0.01,0.34,0.11,0.67,0.29,0.95l-0.76,0.76c-0.29-0.18-0.61-0.28-0.95-0.29    c-0.5-0.02-0.97,0.17-1.32,0.51c-0.35,0.35-0.53,0.82-0.51,1.32c0.01,0.34,0.11,0.67,0.29,0.95l-0.76,0.76    c-0.29-0.18-0.61-0.28-0.95-0.29c-0.5-0.02-0.97,0.17-1.32,0.51c-0.35,0.35-0.53,0.82-0.51,1.32c0.01,0.34,0.11,0.67,0.29,0.95    l-0.62,0.62l-0.65-0.65c0.17-0.28,0.26-0.6,0.27-0.93c0.02-0.5-0.17-0.97-0.51-1.32c-0.35-0.35-0.82-0.53-1.32-0.51    c-0.33,0.01-0.65,0.11-0.93,0.27l-0.77-0.77c0.17-0.28,0.26-0.6,0.27-0.93c0.02-0.5-0.17-0.97-0.51-1.32    c-0.35-0.35-0.82-0.53-1.32-0.51c-0.33,0.01-0.65,0.11-0.93,0.27l-0.77-0.77c0.17-0.28,0.26-0.6,0.27-0.93    c0.02-0.5-0.17-0.97-0.51-1.32c-0.35-0.35-0.82-0.53-1.32-0.51c-0.33,0.01-0.65,0.11-0.93,0.27l-0.77-0.77    c0.17-0.28,0.26-0.6,0.27-0.93c0.02-0.5-0.17-0.97-0.51-1.32c-0.35-0.35-0.82-0.53-1.32-0.51c-0.33,0.01-0.65,0.11-0.93,0.27    l-0.77-0.77c0.17-0.28,0.26-0.6,0.27-0.93c0.02-0.5-0.17-0.97-0.51-1.32c-0.35-0.35-0.82-0.53-1.32-0.51    c-0.33,0.01-0.65,0.11-0.93,0.27l-0.77-0.77c0.17-0.28,0.26-0.6,0.27-0.93c0.02-0.5-0.17-0.97-0.51-1.32    c-0.35-0.35-0.82-0.53-1.32-0.51c-0.33,0.01-0.65,0.11-0.93,0.27l-0.65-0.65l0.62-0.62c0.29,0.18,0.61,0.28,0.95,0.29    c0.5,0.02,0.97-0.17,1.32-0.51c0.35-0.35,0.53-0.82,0.51-1.32c-0.01-0.34-0.11-0.67-0.29-0.95l0.76-0.76    c0.29,0.18,0.61,0.28,0.95,0.29c0.5,0.02,0.97-0.17,1.32-0.51c0.35-0.35,0.53-0.82,0.51-1.32c-0.01-0.34-0.11-0.67-0.29-0.95    l0.76-0.76c0.29,0.18,0.61,0.28,0.95,0.29c0.5,0.02,0.97-0.17,1.32-0.51c0.35-0.35,0.53-0.82,0.51-1.32    c-0.01-0.34-0.11-0.67-0.29-0.95l0.76-0.76c0.29,0.18,0.61,0.28,0.95,0.29c0.5,0.02,0.97-0.17,1.32-0.51    c0.35-0.35,0.53-0.82,0.51-1.32c-0.01-0.34-0.11-0.67-0.29-0.95l0.76-0.76c0.29,0.18,0.61,0.28,0.95,0.29    c0.5,0.02,0.97-0.17,1.32-0.51c0.35-0.35,0.53-0.82,0.51-1.32c-0.01-0.34-0.11-0.67-0.29-0.95l0.76-0.76    c0.29,0.18,0.61,0.28,0.95,0.29c0.5,0.02,0.97-0.17,1.32-0.51s0.53-0.82,0.51-1.32c-0.01-0.34-0.11-0.67-0.29-0.95l0.67-0.67    l0.64,0.64c-0.19,0.29-0.3,0.63-0.31,0.98c-0.02,0.5,0.17,0.97,0.51,1.32s0.82,0.53,1.32,0.51c0.35-0.01,0.68-0.12,0.98-0.31    l0.75,0.75c-0.19,0.29-0.3,0.63-0.31,0.98c-0.02,0.5,0.17,0.97,0.51,1.32c0.35,0.35,0.82,0.53,1.32,0.51    c0.35-0.01,0.68-0.12,0.98-0.31l0.75,0.75c-0.19,0.29-0.3,0.63-0.31,0.98c-0.02,0.5,0.17,0.97,0.51,1.32    c0.35,0.35,0.82,0.53,1.32,0.51c0.35-0.01,0.68-0.12,0.98-0.31l0.75,0.75c-0.19,0.29-0.3,0.63-0.31,0.98    c-0.02,0.5,0.17,0.97,0.51,1.32c0.35,0.35,0.82,0.53,1.32,0.51c0.35-0.01,0.68-0.12,0.98-0.31L52,32    c-0.19,0.29-0.3,0.63-0.31,0.98c-0.02,0.5,0.17,0.97,0.51,1.32c0.35,0.35,0.82,0.53,1.32,0.51c0.35-0.01,0.68-0.12,0.98-0.31    l0.75,0.75c-0.19,0.29-0.3,0.63-0.31,0.98c-0.02,0.5,0.17,0.97,0.51,1.32c0.35,0.35,0.82,0.53,1.32,0.51    c0.35-0.01,0.68-0.12,0.98-0.31l0.64,0.64L57.73,39.06z"/>
		<path d="M40.54,41.62c0,0-0.33-2.23-0.49-3.65c-0.23-2.09-0.45-4.57-0.45-4.57h-2.5c0,0-0.24,2.48-0.47,4.57    c-0.16,1.43-0.49,3.65-0.49,3.65H25.68l-3.23-3.23l15.9-15.89l15.89,15.89l-3.23,3.23H40.54z"/>
		<polygon class="st1" points="39.91,30.4 42.09,27.56 47.53,32.83   "/>
		<polygon class="st1" points="36.77,30.4 34.6,27.56 29.15,32.83   "/>
		<path class="st1" d="M36.6,31.97l0.51,0.86h2.5l0.5-0.86c0,0-0.53-0.2-0.75-0.46c-0.16-0.19-0.25-0.57-0.25-0.57h-0.24    c-0.13,0.2-0.26,0.28-0.5,0.29c-0.23,0-0.37-0.1-0.5-0.29H37.6c0,0-0.1,0.38-0.25,0.57C37.14,31.78,36.6,31.97,36.6,31.97"/>
		<path class="st1" d="M37.71,30.14c0.2-0.18,0.36-0.3,0.64-0.3c0.26,0,0.43,0.11,0.63,0.3l0.63-0.91    c-0.36-0.39-0.73-0.52-1.26-0.52c-0.52,0.01-0.87,0.13-1.23,0.51L37.71,30.14z"/>
		<path d="M37.57,37.52h1.56v-1.5c-0.04-0.41-0.35-0.74-0.77-0.73c-0.42,0.01-0.74,0.31-0.79,0.73V37.52z"/>
		<path d="M40.83,43.21c0.08,0.42,0.2,1.09,0.3,1.58c0.16,0.84,0.47,2.73,0.47,2.73h-2.01v-1.86c-0.01-0.67-0.56-1.23-1.24-1.22    c-0.68,0.01-1.24,0.54-1.25,1.22v1.86H35.1c0,0,0.29-1.89,0.47-2.72c0.1-0.5,0.24-1.17,0.32-1.6h-8.59l11.06,11.07l11.13-11.07    H40.83z"/>
	</g>
	<polygon class="st2" points="17.08,37.08 17.08,25.96 12.73,24.79 12.73,30.08 0.07,26.48 0.07,32.26  "/>
	<polygon class="st2" points="76.61,37.08 76.61,25.96 72.26,24.79 72.26,30.08 59.6,26.48 59.6,32.26  "/>
	<polygon class="st2" points="44.98,17.13 56.1,17.13 57.27,12.78 51.98,12.78 55.58,0.13 49.8,0.13  "/>
	<polygon class="st2" points="44.98,76.66 56.1,76.66 57.27,72.31 51.98,72.31 55.58,59.65 49.8,59.65  "/>
</g>
<g>
	<polygon points="76.61,46.62 87.72,46.62 88.89,42.26 83.6,42.26 87.2,29.61 81.42,29.61" fill="#fff"/>
	<path fill="#fff" d="M95.6,42.19l0.38-1.35h7.29l0.85-2.94c0.13-0.46,0.21-0.91,0.21-1.32c0-0.39-0.05-0.75-0.19-1.07   c-0.37-0.86-1.31-1.41-3.06-1.41h-4.23c-1.06,0-1.88,0.14-2.54,0.38c-1.67,0.61-2.26,1.91-2.7,3.41l-1.59,5.63   c0,0-0.25,0.93,0.04,1.64c0.31,0.77,1.22,1.44,2.28,1.44c1.34,0,6.26,0,6.26,0l0.39,0c1.44,0,2.72-0.92,3.17-2.29l0.68-2.06h-5.04   l-0.32,1.03c-0.06,0.2-0.19,0.39-0.37,0.5c-0.18,0.11-0.45,0.2-0.86,0.19c-0.98-0.01-0.96-0.69-0.88-1.03L95.6,42.19z M96.9,37.45   c0.12-0.45,0.48-0.82,0.94-0.9c0.13-0.02,0.27-0.04,0.43-0.04c1.05,0,0.84,0.88,0.84,0.88l-0.31,1.19h-2.23L96.9,37.45z"/>
	<path fill="#fff" d="M114.27,34.12l-2.56,8.79c-0.12,0.45-0.48,0.82-0.94,0.9c-0.13,0.02-0.27,0.04-0.43,0.04c-1.05,0-0.84-0.88-0.84-0.88   l2.53-8.84h-5.13l-2.56,8.71c-0.13,0.46-0.21,0.91-0.21,1.32c0,0.39,0.05,0.75,0.19,1.07c0.37,0.86,1.31,1.41,3.06,1.41h4.23   c1.06,0,1.88-0.14,2.54-0.38c1.67-0.61,2.26-1.91,2.7-3.41l2.46-8.71H114.27z"/>
	<path fill="#fff" d="M178.21,34.12l-2.56,8.79c-0.12,0.45-0.48,0.82-0.94,0.9c-0.13,0.02-0.27,0.04-0.43,0.04c-1.05,0-0.84-0.88-0.84-0.88   l2.53-8.84h-5.13l-2.56,8.71c-0.13,0.46-0.21,0.91-0.21,1.32c0,0.39,0.05,0.75,0.19,1.07c0.37,0.86,1.31,1.41,3.06,1.41h4.23   c1.06,0,1.88-0.14,2.54-0.38c1.67-0.61,2.26-1.91,2.7-3.41l2.46-8.71H178.21z"/>
	<path fill="#fff" d="M191,39.55h5.18l0.43-1.56l0.07-0.25c0.05-0.17,0.08-0.34,0.12-0.51c0.05-0.28,0.09-0.55,0.1-0.81   c0-0.39-0.05-0.75-0.19-1.07c-0.37-0.86-1.31-1.41-3.06-1.41c-0.29,0-0.59,0.02-0.9,0.06c-1,0.12-2.05,0.44-2.73,1.06l0.28-0.95   h-5.08l-3.58,12.5h5.23l2.52-9.16c0.13-0.49,0.55-0.86,1.06-0.92c0.1-0.01,0.2-0.02,0.32-0.02c0.61,0,0.79,0.3,0.84,0.55   c0.03,0.18,0,0.33,0,0.33l-0.11,0.43v0L191,39.55z"/>
	<path fill="#fff" d="M215.09,33.95c-0.29,0-0.59,0.02-0.9,0.06c-0.12,0.01-0.24,0.03-0.35,0.05c0,0,0,0,0,0c-0.01,0-0.01,0-0.01,0c0,0,0,0,0,0   c-0.68,0.09-1.25,0.31-1.7,0.56c-0.05,0.03-0.09,0.05-0.14,0.08c-0.07,0.04-0.13,0.08-0.2,0.12c-0.02,0.01-0.03,0.02-0.05,0.03   c-0.42,0.29-0.71,0.58-0.86,0.75c-0.02-0.08-0.04-0.17-0.07-0.24c-0.37-0.86-1.31-1.41-3.06-1.41c-0.29,0-0.59,0.02-0.9,0.06   c-1,0.12-2.05,0.44-2.73,1.06l0.28-0.95h-5.08l-3.55,12.5h5.23l2.49-9.16c0.13-0.49,0.55-0.86,1.06-0.92   c0.1-0.01,0.2-0.02,0.32-0.02c0.61,0,0.79,0.3,0.84,0.55c0.03,0.18,0,0.33,0,0.33l-0.11,0.43v0l-2.46,8.78h5.18l2.27-8.14l0,0l0,0   l0.01-0.03l0.07-0.25c0.04-0.13,0.06-0.26,0.09-0.38l0.09-0.35c0.14-0.49,0.55-0.86,1.06-0.92c0.1-0.01,0.2-0.02,0.32-0.02   c0.61,0,0.79,0.3,0.84,0.55c0.03,0.18,0,0.33,0,0.33l-0.11,0.43v0l-2.45,8.78h5.18l2.39-8.63l0.07-0.25   c0.05-0.17,0.08-0.34,0.12-0.51c0.05-0.28,0.09-0.55,0.1-0.81c0-0.39-0.05-0.75-0.19-1.07C217.78,34.5,216.84,33.95,215.09,33.95z"/>
	<path fill="#fff" d="M163.41,32.21c-0.62,0.84-1.27,1.37-2.17,1.65c-0.5,0.16-1.08,0.24-1.77,0.26l-2.21,0l1.27-4.51h-2.98   c-0.32,0.73-0.81,1.69-1.49,2.6c-0.62,0.84-1.27,1.37-2.17,1.65c-0.5,0.16-1.07,0.24-1.77,0.26h-0.9l-0.67,2.4l2.41,0l-2.11,7.49   h-2.75c-0.48,0-0.83-0.46-0.7-0.92l1.37-4.93l0.07-0.25c0.05-0.17,0.08-0.34,0.12-0.51c0.05-0.28,0.09-0.55,0.1-0.81   c0-0.39-0.05-0.75-0.19-1.07c-0.37-0.86-1.31-1.41-3.06-1.41c-0.29,0-0.59,0.02-0.9,0.06c-1,0.12-2.05,0.44-2.73,1.06l1.61-5.62   h-5.08l-4.46,14.18h-7.77c-0.98-0.01-0.96-0.69-0.88-1.03l1.45-5.3c0.13-0.49,0.55-0.86,1.06-0.92c0.1-0.01,0.2-0.02,0.32-0.02   c1.05,0,0.84,0.88,0.84,0.88l-0.59,2.32h5.11l0.5-1.81c0.13-0.46,0.21-0.91,0.21-1.32c0-0.39-0.05-0.75-0.19-1.07   c-0.37-0.86-1.31-1.41-3.06-1.41h-4.23c-1.06,0-1.88,0.14-2.54,0.38c-1.67,0.61-2.26,1.91-2.7,3.41l-1.59,5.63   c0,0-0.25,0.93,0.04,1.64c0.31,0.77,1.22,1.44,2.28,1.44c0.45,0,3.06,0,6.16,0h10.4l2.5-9.16c0.13-0.49,0.55-0.86,1.06-0.92   c0.1-0.01,0.2-0.02,0.32-0.02c0.61,0,0.79,0.3,0.84,0.55c0.03,0.18,0,0.33,0,0.33l-0.11,0.43v0l-1.97,6.99   c-0.24,0.91,0.45,1.79,1.39,1.79h3.31h2.8h2.4h6.33l0.73-2.61h-1.07c-0.85-0.01-0.95-0.53-0.9-0.88c0.01-0.05,0.02-0.1,0.03-0.15   c0.19-0.71,1.74-6.29,1.78-6.46h3.78l-2.01,7.15c-0.42,1.48,0.7,2.95,2.23,2.95h4.91l0.73-2.61h-1.2c-0.85-0.01-0.95-0.53-0.9-0.88   c0.01-0.05,0.02-0.1,0.03-0.15c0.2-0.72,1.78-6.46,1.78-6.46l2.38,0l0.66-2.4l-2.32,0l1.27-4.51h-2.98   C164.57,30.34,164.08,31.3,163.41,32.21z"/>
</g>
</svg>