<?xml version="1.0" encoding="utf-8"?>
<!-- Generator: Adobe Illustrator 26.0.2, SVG Export Plug-In . SVG Version: 6.00 Build 0)  -->
<svg version="1.1" id="Ebene_1" xmlns="http://www.w3.org/2000/svg" xmlns:xlink="http://www.w3.org/1999/xlink" x="0px" y="0px"
	 viewBox="0 0 467.8 134.1" style="enable-background:new 0 0 467.8 134.1;" xml:space="preserve">
<style type="text/css">
	.st0{fill:#fff;}
</style>
<g>
	<path class="st0" d="M467.8,34.7c0-18.8-15.8-34.1-35.3-34.1c-19.5,0-35.4,15.3-35.4,34.1c0,18.9,15.9,34.2,35.4,34.2
		C452,68.9,467.8,53.6,467.8,34.7L467.8,34.7z M432.5,60.2c-14,0-25.8-11.7-25.8-25.6c0-13.7,11.8-25.2,25.8-25.2
		c14,0,25.7,11.6,25.7,25.2C458.2,48.7,446.7,60.2,432.5,60.2L432.5,60.2z M381.2,11.1h11.6V2.6h-32.8v8.5h11.5v55.8h9.6V11.1
		L381.2,11.1z M349.7,66.9h10.2L333.6,2.6h-9.1l-26.3,64.3h9.9l5.3-13.1h31L349.7,66.9L349.7,66.9z M316.7,45.7L329,15l12.2,30.6
		H316.7L316.7,45.7z M293.3,41.6v-39h-9.5v41.5c0,11.1-7.3,16.1-14.6,16.1c-7,0-14.5-5-14.5-16.1V2.6h-9.5v39
		c0,17.3,8.7,27.3,24,27.3C284.5,68.9,293.3,59,293.3,41.6L293.3,41.6z M235,68.3l2.5-8.5l-16,0.7c8.9-6,14.3-15.9,14.3-26.4
		c0-18.8-15.9-34.1-35.3-34.1C180.9,0,165,15.3,165,34.1c0,18.9,15.9,34.2,35.4,34.2L235,68.3L235,68.3z M174.6,34
		c0-13.7,11.8-25.2,25.9-25.2c14,0,25.8,11.6,25.8,25.2c0,14.1-11.6,25.6-25.8,25.6C186.4,59.6,174.6,47.9,174.6,34L174.6,34z
		 M163.3,66.3l-24.1-26.7c10.1-2.2,16.6-9.5,16.6-18.7c0-11.9-8.3-19-22.3-19h-14.9v64.3h9.6V41.2l23.2,25.1L163.3,66.3L163.3,66.3z
		 M146,21c0,6.4-5.3,10.9-12.8,10.9h-5.2V10.7h5.3C142.7,10.7,146,16,146,21L146,21z M107.7,34.1C107.7,15.3,91.9,0,72.4,0
		C52.9,0,37,15.3,37,34.1C37,53,52.9,68.3,72.4,68.3C91.9,68.3,107.7,53,107.7,34.1L107.7,34.1z M72.4,59.6
		c-14,0-25.8-11.7-25.8-25.6c0-13.7,11.8-25.2,25.8-25.2c13.9,0,25.7,11.6,25.7,25.2C98.1,48.1,86.6,59.6,72.4,59.6L72.4,59.6z
		 M21.1,10.5h11.6V2H0v8.5h11.6v55.8h9.6V10.5L21.1,10.5z"/>
	<g>
		<path class="st0" d="M179.5,111.6c-1-0.5-2.1-0.7-3.3-0.7c-1.2,0-2.4,0.3-3.4,0.8c-1,0.5-1.8,1.2-2.4,2c-0.6,0.9-0.9,1.9-0.9,3
			c0,1,0.3,2,0.8,2.8c0.5,0.7,1.2,1.3,2,1.7c-0.6,0.3-1.2,0.7-1.6,1.1c-0.6,0.6-1,1.2-1,1.9c0,0.7,0.3,1.3,0.9,1.7
			c0.4,0.3,1,0.5,1.6,0.6c-1.2,0.5-2.1,1.1-2.7,1.7c-0.7,0.7-1,1.4-1,2.2c0,1.1,0.6,2,1.9,2.8c1.3,0.7,3.1,1,5.3,1
			c1.6,0,2.9-0.3,4.2-0.8c1.2-0.5,2.2-1.2,2.9-2.1c0.7-0.9,1.1-1.8,1.1-2.9c0-1.2-0.4-2.2-1.2-2.9c-0.8-0.7-2.1-1.1-3.8-1.3
			l-4.7-0.5c-0.5,0-0.8-0.2-1.1-0.4c-0.3-0.2-0.4-0.5-0.4-0.8c0-0.2,0.1-0.4,0.3-0.6c0.1-0.1,0.3-0.3,0.5-0.4
			c0.8,0.2,1.6,0.3,2.5,0.3c1.2,0,2.3-0.2,3.3-0.7c1-0.5,1.7-1.1,2.3-2s0.8-1.8,0.8-2.9c0-1.1-0.3-2-0.8-2.9
			c-0.1-0.1-0.1-0.1-0.2-0.2l3.1,0.2v-2.4l-4.9,0.5C179.6,111.7,179.6,111.6,179.5,111.6z M177.5,127c1.2,0.1,2.1,0.3,2.7,0.7
			s0.8,0.9,0.8,1.6c0,1-0.4,1.7-1.4,2.4c-0.9,0.6-2.1,0.9-3.5,0.9c-1.3,0-2.3-0.2-3-0.7c-0.7-0.5-1.1-1.2-1.1-2
			c0-0.6,0.2-1.2,0.6-1.8c0.3-0.5,0.8-0.9,1.4-1.3L177.5,127z M178.4,119.3c-0.5,0.7-1.2,1-2.1,1c-1,0-1.8-0.4-2.3-1.1
			c-0.6-0.7-0.9-1.7-0.9-2.9c0-1.2,0.3-2.1,0.8-2.8s1.3-1.1,2.1-1.1c0.9,0,1.6,0.4,2.2,1.1s0.9,1.8,0.9,3.1
			C179.2,117.8,179,118.7,178.4,119.3z"/>
		<path class="st0" d="M144,123c0-0.7-0.1-1.5-0.1-2.5v-4.4c0-1,0-1.8,0.1-2.5c0-0.7,0.1-1.4,0.2-2.2l-0.7-0.5l-5.4,1.4v1.3l2.3,0.5
			c0.1,0.5,0.2,1,0.2,1.8c0.1,0.7,0.1,1.5,0.1,2.4l0,2.5c0,0.8,0,1.4,0,1.9c0,0.5,0,0.9-0.1,1.1s-0.1,0.5-0.1,0.5l-2.3,0.5l0.1,1.4
			h8.1l0.1-1.4l-2.3-0.5C144.1,124.1,144,123.7,144,123z"/>
		<path class="st0" d="M243.9,107.3c0.7,0,1.3-0.2,1.7-0.7s0.6-1,0.6-1.6c0-0.6-0.2-1.2-0.6-1.6c-0.4-0.5-1-0.7-1.7-0.7
			s-1.3,0.2-1.7,0.7c-0.5,0.5-0.7,1-0.7,1.6c0,0.6,0.2,1.2,0.7,1.6C242.6,107.1,243.2,107.3,243.9,107.3z"/>
		<path class="st0" d="M164.2,122.9c0-0.7-0.1-1.4-0.1-2.2V117c0-1.4-0.2-2.5-0.7-3.4c-0.5-0.9-1.1-1.6-1.9-2
			c-0.8-0.5-1.6-0.7-2.5-0.7c-0.9,0-1.8,0.2-2.6,0.6s-1.6,1.1-2.4,2l-0.1,0l0.2-1.9l-0.7-0.6l-5.1,1.4v1.3l2.2,0.5
			c0.1,0.5,0.2,1,0.2,1.7s0.1,1.4,0.1,2.2l0,2.7c0,0.7,0,1.4,0,1.9c0,0.5,0,0.9-0.1,1.2s-0.1,0.5-0.1,0.6l-2.2,0.6l0.1,1.4h7.7
			l0.1-1.4l-2.2-0.6c-0.1-0.2-0.1-0.6-0.1-1.3s-0.1-1.5-0.1-2.5v-5.2c0.4-0.6,1-1.1,1.6-1.4c0.6-0.3,1.3-0.5,2-0.5
			c0.6,0,1.1,0.1,1.6,0.4c0.5,0.3,0.9,0.7,1.2,1.3c0.3,0.6,0.5,1.4,0.5,2.4v3.5c0,0.6,0,1.1,0,1.5c0,0.5,0,0.8-0.1,1.1
			s-0.1,0.6-0.1,0.8l-2,0.6l0.1,1.4h7.6l0.1-1.4l-2.2-0.6C164.3,124.1,164.3,123.6,164.2,122.9z"/>
		<path class="st0" d="M142.3,107.3c0.7,0,1.3-0.2,1.7-0.7c0.4-0.4,0.6-1,0.6-1.6c0-0.6-0.2-1.2-0.6-1.6c-0.4-0.5-1-0.7-1.7-0.7
			s-1.3,0.2-1.7,0.7c-0.4,0.5-0.7,1-0.7,1.6c0,0.6,0.2,1.2,0.7,1.6C141.1,107.1,141.6,107.3,142.3,107.3z"/>
		<path class="st0" d="M132,108.4c-2.1-1.8-5-2.6-8.6-2.6h-8.8l-0.1,1.5l2.2,0.5c0.1,0.2,0.1,0.7,0.2,1.7c0,1,0.1,2.1,0.1,3.6v6.1
			c0,1.3,0,2.4-0.1,3.4c0,1-0.1,1.6-0.2,1.8l-2.2,0.5l0.1,1.5h9.2c2.2,0,4.2-0.5,5.9-1.3c1.7-0.9,3.1-2.1,4-3.7s1.5-3.4,1.5-5.4
			C135.1,112.6,134.1,110.1,132,108.4z M129.2,122.4c-1.2,1.2-2.9,1.9-5.2,1.9c-0.5,0-1.1,0-1.6-0.1c-0.6-0.1-1.2-0.1-1.9-0.2
			c0-0.3-0.1-0.7-0.1-1.2s-0.1-1.1-0.1-1.7c0-0.6,0-1.3,0-2V113c0-1.1,0-2,0-2.7c0-0.7,0-1.2,0-1.6s0-0.7,0-0.9
			c0.5-0.1,0.9-0.2,1.3-0.2c0.4,0,0.8,0,1.2,0c1.2,0,2.4,0.2,3.4,0.6s1.8,1,2.5,1.7c0.7,0.8,1.2,1.7,1.6,2.9s0.6,2.5,0.6,4.1
			C131,119.3,130.4,121.1,129.2,122.4z"/>
		<path class="st0" d="M197.6,123.4c-0.6,0.3-1.4,0.5-2.2,0.5c-1.5,0-2.7-0.5-3.6-1.6c-0.9-1-1.3-2.3-1.4-3.9h9.9v-0.7
			c0-2.1-0.5-3.7-1.6-5c-1-1.2-2.5-1.8-4.4-1.9c-1.3,0-2.5,0.3-3.6,1s-2,1.6-2.7,2.8c-0.7,1.2-1,2.6-1,4.3c0,1.5,0.3,2.8,1,4
			s1.5,2,2.6,2.6c1.1,0.6,2.4,0.9,3.8,0.9c1.3,0,2.5-0.3,3.5-0.9c1.1-0.6,1.9-1.6,2.6-2.9l-0.9-0.9
			C198.9,122.6,198.2,123.1,197.6,123.4z M190.9,114.7c0.4-0.7,0.8-1.3,1.4-1.7c0.6-0.4,1.1-0.6,1.8-0.6c1,0,1.8,0.4,2.3,1.1
			c0.6,0.7,0.8,1.7,0.8,2.9v0.3h-6.8C190.5,115.9,190.7,115.2,190.9,114.7z"/>
		<path class="st0" d="M315.2,123.4c-0.6,0.3-1.4,0.5-2.2,0.5c-1.5,0-2.7-0.5-3.6-1.6c-0.9-1-1.3-2.3-1.4-3.9h9.9v-0.7
			c0-2.1-0.5-3.7-1.6-5c-1-1.2-2.5-1.8-4.4-1.9c-1.3,0-2.5,0.3-3.6,1s-2,1.6-2.7,2.8c-0.7,1.2-1,2.6-1,4.3c0,1.5,0.3,2.8,1,4
			c0.6,1.1,1.5,2,2.6,2.6c1.1,0.6,2.4,0.9,3.8,0.9c1.3,0,2.5-0.3,3.5-0.9c1.1-0.6,1.9-1.6,2.6-2.9l-0.9-0.9
			C316.5,122.6,315.8,123.1,315.2,123.4z M308.5,114.7c0.4-0.7,0.8-1.3,1.4-1.7c0.6-0.4,1.1-0.6,1.8-0.6c1,0,1.8,0.4,2.3,1.1
			c0.6,0.7,0.8,1.7,0.8,2.9v0.3H308C308.1,115.9,308.3,115.2,308.5,114.7z"/>
		<path class="st0" d="M341.9,123.4c-0.6,0.3-1.4,0.5-2.2,0.5c-1.5,0-2.7-0.5-3.6-1.6c-0.9-1-1.3-2.3-1.4-3.9h9.9v-0.7
			c0-2.1-0.5-3.7-1.6-5c-1-1.2-2.5-1.8-4.4-1.9c-1.3,0-2.5,0.3-3.6,1s-2,1.6-2.7,2.8c-0.7,1.2-1,2.6-1,4.3c0,1.5,0.3,2.8,1,4
			c0.6,1.1,1.5,2,2.6,2.6c1.1,0.6,2.4,0.9,3.8,0.9c1.3,0,2.5-0.3,3.5-0.9c1.1-0.6,1.9-1.6,2.6-2.9l-0.9-0.9
			C343.1,122.6,342.5,123.1,341.9,123.4z M335.2,114.7c0.4-0.7,0.8-1.3,1.4-1.7c0.6-0.4,1.1-0.6,1.8-0.6c1,0,1.8,0.4,2.3,1.1
			c0.6,0.7,0.8,1.7,0.8,2.9v0.3h-6.8C334.8,115.9,334.9,115.2,335.2,114.7z"/>
		<path class="st0" d="M298.7,123.4c-0.6,0.3-1.4,0.5-2.2,0.5c-1.5,0-2.7-0.5-3.6-1.6c-0.9-1-1.3-2.3-1.4-3.9h9.9v-0.7
			c0-2.1-0.5-3.7-1.6-5c-1-1.2-2.5-1.8-4.4-1.9c-1.3,0-2.5,0.3-3.6,1s-2,1.6-2.7,2.8c-0.7,1.2-1,2.6-1,4.3c0,1.5,0.3,2.8,1,4
			c0.6,1.1,1.5,2,2.6,2.6c1.1,0.6,2.4,0.9,3.8,0.9c1.3,0,2.5-0.3,3.5-0.9s1.9-1.6,2.6-2.9l-0.9-0.9
			C300,122.6,299.4,123.1,298.7,123.4z M292,114.7c0.4-0.7,0.8-1.3,1.4-1.7c0.6-0.4,1.1-0.6,1.8-0.6c1,0,1.8,0.4,2.3,1.1
			c0.6,0.7,0.8,1.7,0.8,2.9v0.3h-6.8C291.6,115.9,291.8,115.2,292,114.7z"/>
		<path class="st0" d="M352.3,122.3c-0.5-0.5-1.1-0.7-1.8-0.7c-0.5,0-0.9,0.1-1.3,0.3c-0.4,0.2-0.7,0.5-0.9,0.9
			c-0.2,0.4-0.4,0.8-0.4,1.2c0,0.7,0.2,1.3,0.8,1.8s1.1,0.7,1.8,0.7c0.7,0,1.3-0.2,1.8-0.7c0.5-0.5,0.8-1.1,0.8-1.8
			C353.1,123.4,352.8,122.8,352.3,122.3z"/>
		<path class="st0" d="M326.2,122.2c0-1.1,0-2.4,0-3.9l0-5.5c0-1.6,0-3.1,0-4.2c0-1.2,0-2.2,0.1-3.2c0-1,0.1-1.9,0.1-2.9l-0.8-0.5
			l-5.5,1.5l0.1,1.2l2.6,0.4c0,0.3,0,0.7,0,1.3c0,0.6,0,1.3,0,2.1c0,0.8,0,1.6,0,2.5c0,0.9,0,1.7,0,2.6v4.4c0,1.1,0,2.1,0,3
			c0,0.9,0,1.6,0,2.2s-0.1,1-0.1,1.2l-2.3,0.5l0.1,1.4h8l0.1-1.4l-2.3-0.5C326.3,124,326.2,123.3,326.2,122.2z"/>
		<path class="st0" d="M245.5,123c0-0.7,0-1.5,0-2.5v-4.4c0-1,0-1.8,0-2.5s0.1-1.4,0.2-2.2l-0.7-0.5l-5.4,1.4v1.3l2.3,0.5
			c0.1,0.5,0.2,1,0.2,1.8c0,0.7,0.1,1.5,0.1,2.4l0,2.5c0,0.8,0,1.4,0,1.9c0,0.5,0,0.9,0,1.1s0,0.5-0.1,0.5l-2.3,0.5l0.1,1.4h8.1
			l0.1-1.4l-2.3-0.5C245.6,124.1,245.6,123.7,245.5,123z"/>
		<path class="st0" d="M235.5,122.9c0-0.7,0-1.4,0-2.2v-3.8c0-1.2-0.2-2.3-0.7-3.2c-0.5-0.9-1.1-1.6-1.9-2.1
			c-0.8-0.5-1.7-0.7-2.7-0.7c-1.1,0-2.1,0.3-3,0.8c-0.8,0.5-1.5,1.1-2.2,2c0,0,0,0,0-0.1c-0.5-0.9-1.1-1.6-1.9-2
			c-0.8-0.5-1.6-0.7-2.4-0.7s-1.6,0.2-2.4,0.6c-0.8,0.4-1.5,1.1-2.3,2l-0.1,0l0.2-2l-0.7-0.6l-5.1,1.4v1.3l2.2,0.5
			c0.1,0.3,0.1,0.7,0.2,1.1c0,0.4,0.1,0.9,0.1,1.4c0,0.5,0,1,0,1.5l0,2.7c0,0.7,0,1.4,0,1.9c0,0.5,0,0.9,0,1.2s0,0.5-0.1,0.6
			l-2.2,0.6l0.1,1.4h7.6l0.1-1.4l-2-0.6c0-0.2-0.1-0.7-0.1-1.3s0-1.5,0-2.5v-5.2c0.4-0.6,1-1.1,1.5-1.5c0.6-0.3,1.2-0.5,1.9-0.5
			c0.6,0,1.1,0.1,1.5,0.4c0.5,0.3,0.9,0.7,1.1,1.2c0.3,0.6,0.4,1.3,0.4,2.2l0,3.7c0,0.6,0,1.1,0,1.5c0,0.5,0,0.8,0,1.1
			s-0.1,0.6-0.1,0.8l-1.9,0.6l0.1,1.4h7.3l0.1-1.4l-2-0.6c0-0.2-0.1-0.7-0.1-1.4c0-0.7,0-1.4,0-2.2l0-3.7c0-0.7-0.1-1.3-0.2-1.8
			c0.4-0.6,0.9-1,1.5-1.3c0.6-0.3,1.3-0.5,2-0.5c0.5,0,1,0.1,1.5,0.4s0.9,0.7,1.2,1.3s0.5,1.4,0.5,2.3v3.5c0,0.6,0,1.1,0,1.5
			s0,0.8,0,1.1s-0.1,0.6-0.1,0.8l-1.9,0.6l0.1,1.4h7.5l0.1-1.4l-2.2-0.6C235.5,124.1,235.5,123.6,235.5,122.9z"/>
		<path class="st0" d="M282.3,116.1c-0.8-0.5-1.6-0.9-2.5-1.3s-1.7-0.8-2.5-1.2s-1.4-0.9-1.9-1.4s-0.7-1.2-0.7-2
			c0-0.9,0.3-1.6,1-2.2c0.7-0.5,1.6-0.8,2.7-0.8c1.1,0,2,0.2,2.8,0.7l1,3.1l1.7-0.1l-0.3-4.6c-0.4-0.2-0.9-0.3-1.4-0.5
			s-1.1-0.2-1.6-0.3c-0.6-0.1-1.2-0.1-1.7-0.1c-1.5,0-2.9,0.2-4.1,0.8c-1.2,0.5-2.1,1.2-2.7,2.1c-0.6,0.9-1,1.9-1,3.1
			c0,1.1,0.2,2,0.7,2.8c0.5,0.7,1.1,1.4,1.9,1.9c0.8,0.5,1.6,0.9,2.5,1.3c0.9,0.4,1.7,0.8,2.5,1.1c0.8,0.4,1.4,0.8,1.9,1.4
			s0.7,1.2,0.7,2c0,0.9-0.3,1.6-1,2.1c-0.6,0.5-1.5,0.8-2.6,0.8c-0.7,0-1.4-0.1-2-0.3s-1.3-0.5-1.8-0.8l-1-3.3l-1.7,0.1l0.2,4.7
			c0.7,0.4,1.6,0.8,2.8,1c1.1,0.3,2.2,0.4,3.2,0.4c1.6,0,2.9-0.3,4.1-0.8c1.2-0.5,2.1-1.2,2.8-2.1c0.7-0.9,1-1.9,1-3
			c0-1.1-0.2-2-0.7-2.7C283.8,117.2,283.1,116.6,282.3,116.1z"/>
		<path class="st0" d="M259.6,123.7c-0.4,0.2-0.9,0.3-1.4,0.3c-0.9,0-1.6-0.3-2.1-0.8s-0.8-1.4-0.8-2.5l0.1-7.6h5.1v-1.9h-5.1l0-3.2
			h-0.8l-5,4.3v0.9h2.4l-0.1,8.1c0,1.8,0.5,3.1,1.4,4c1,0.9,2.2,1.3,3.7,1.3c0.9,0,1.8-0.2,2.6-0.7s1.4-1.1,1.8-2l-0.7-0.9
			C260.5,123.2,260.1,123.5,259.6,123.7z"/>
	</g>
</g>
</svg>
